<?xml version="1.0" standalone="no"?>
<!DOCTYPE svg PUBLIC "-//W3C//DTD SVG 20010904//EN"
 "http://www.w3.org/TR/2001/REC-SVG-20010904/DTD/svg10.dtd">
<svg version="1.0" xmlns="http://www.w3.org/2000/svg"
 width="1280.000000pt" height="1280.000000pt" viewBox="0 0 1280.000000 1280.000000"
 preserveAspectRatio="xMidYMid meet">

<g transform="translate(0.000000,1280.000000) scale(0.100000,-0.100000)"
fill="#000000" stroke="none">
<path d="M6065 12655 c-330 -24 -570 -65 -850 -145 -16 -5 -46 -13 -65 -18
-228 -62 -604 -223 -855 -367 -191 -109 -459 -294 -599 -415 -408 -348 -709
-712 -970 -1170 -59 -104 -168 -335 -224 -475 -143 -359 -224 -686 -273 -1110
-17 -146 -18 -666 0 -805 44 -363 83 -554 171 -835 42 -133 66 -190 142 -330
24 -44 70 -129 102 -190 33 -60 73 -137 91 -170 35 -65 95 -178 155 -290 20
-38 55 -104 77 -145 128 -237 267 -498 313 -585 29 -55 60 -113 70 -130 10
-16 40 -73 67 -125 28 -52 69 -130 92 -173 72 -136 120 -225 162 -304 23 -43
54 -100 69 -128 15 -27 51 -95 80 -150 29 -55 65 -122 80 -150 15 -27 67 -124
115 -215 48 -91 102 -192 120 -225 18 -33 51 -95 74 -137 22 -43 59 -112 81
-153 22 -41 59 -110 81 -152 23 -43 56 -105 74 -138 18 -33 52 -96 75 -140 99
-187 493 -923 545 -1020 18 -33 54 -100 80 -150 26 -49 62 -117 80 -150 18
-33 51 -95 74 -137 74 -140 123 -232 161 -303 123 -229 269 -502 307 -575 65
-122 121 -226 158 -295 53 -98 126 -236 159 -298 59 -114 123 -168 218 -182
64 -10 147 17 198 64 37 34 56 68 225 386 26 50 62 117 80 150 30 56 56 104
154 288 65 121 119 224 160 300 129 240 265 495 311 582 29 55 65 123 80 150
15 28 46 85 69 128 96 180 125 235 156 292 18 33 54 101 80 150 26 50 60 113
75 140 15 28 51 95 80 150 67 127 317 595 385 720 18 33 51 95 74 138 22 42
59 111 81 152 22 41 59 110 81 152 23 43 54 101 69 128 15 28 51 95 80 150 46
87 182 342 311 583 22 39 58 107 80 150 23 42 56 104 74 137 18 33 54 101 80
150 26 50 62 117 80 150 18 33 54 101 80 150 47 87 378 707 456 853 71 131
116 216 169 316 29 55 60 113 69 130 81 145 124 261 185 499 190 739 175 1511
-43 2222 -40 130 -86 264 -94 272 -4 3 -7 12 -7 20 0 7 -9 32 -19 56 -11 23
-27 62 -38 87 -10 25 -52 115 -95 200 -345 699 -903 1306 -1571 1705 -303 181
-658 337 -967 425 -25 7 -56 16 -70 20 -24 8 -61 17 -167 41 -86 19 -127 28
-163 34 -19 3 -60 11 -90 16 -91 16 -205 28 -415 44 -230 17 -286 17 -520 0z
m720 -519 c257 -35 475 -85 704 -162 812 -270 1516 -839 1960 -1582 361 -606
546 -1355 502 -2035 -13 -196 -39 -407 -66 -532 -9 -38 -20 -90 -25 -115 -13
-62 -43 -169 -75 -270 -24 -75 -71 -169 -300 -595 -18 -33 -50 -94 -72 -135
-87 -163 -127 -238 -158 -295 -18 -33 -54 -100 -80 -150 -26 -49 -64 -121 -85
-160 -21 -38 -122 -227 -225 -420 -103 -192 -204 -381 -225 -420 -20 -38 -56
-105 -79 -147 -22 -43 -60 -113 -82 -155 -23 -43 -59 -111 -80 -150 -67 -125
-120 -225 -159 -298 -21 -38 -106 -198 -190 -355 -177 -332 -221 -413 -265
-495 -18 -33 -54 -100 -80 -150 -26 -49 -62 -117 -80 -150 -18 -33 -51 -95
-74 -137 -105 -198 -123 -233 -160 -300 -21 -40 -89 -167 -151 -283 -62 -115
-130 -242 -151 -282 -39 -74 -86 -162 -160 -301 -23 -42 -56 -104 -74 -137
-18 -33 -51 -95 -74 -137 -22 -43 -60 -113 -82 -155 -23 -43 -59 -109 -79
-148 -75 -141 -135 -252 -179 -335 -26 -47 -57 -106 -71 -132 -29 -55 -43 -59
-62 -21 -8 16 -33 63 -56 106 -23 42 -59 110 -81 150 -21 39 -57 108 -81 152
-24 44 -60 113 -81 153 -86 160 -121 225 -158 295 -74 137 -408 762 -453 847
-92 173 -131 246 -163 305 -18 33 -50 94 -72 135 -77 144 -126 235 -158 295
-18 33 -103 193 -190 355 -86 162 -175 327 -196 367 -39 73 -86 161 -160 301
-23 42 -56 104 -74 137 -18 33 -51 95 -74 138 -22 42 -60 112 -82 155 -23 42
-56 104 -74 137 -37 70 -192 360 -316 593 -23 42 -56 104 -74 137 -18 33 -52
96 -75 140 -23 44 -57 107 -75 140 -18 33 -54 101 -80 150 -26 50 -60 113 -75
140 -15 28 -51 95 -80 150 -29 55 -65 123 -80 150 -15 28 -67 124 -115 215
-82 155 -104 196 -189 353 -94 174 -99 186 -146 352 -26 91 -33 121 -70 295
-83 400 -91 889 -20 1300 26 147 72 347 100 435 69 211 94 282 124 350 12 28
29 66 36 85 53 134 182 365 313 560 247 369 584 709 952 959 491 335 1082 555
1640 610 61 6 126 13 145 15 84 10 611 -4 715 -18z"/>
<path d="M6060 10779 c-233 -37 -278 -47 -425 -95 -276 -89 -550 -240 -765
-422 -439 -371 -701 -825 -802 -1390 -19 -109 -22 -162 -22 -372 0 -213 3
-261 23 -370 28 -154 65 -295 97 -376 13 -33 24 -63 24 -67 0 -19 114 -257
159 -332 20 -33 42 -72 49 -86 32 -61 185 -253 287 -358 363 -376 798 -597
1340 -683 110 -17 505 -17 620 1 678 102 1249 465 1612 1023 80 124 223 404
223 438 0 6 4 18 9 28 22 39 82 261 100 367 6 33 16 92 23 130 16 93 16 487 0
580 -7 39 -18 97 -24 130 -83 451 -296 852 -633 1191 -267 268 -566 453 -920
569 -124 40 -229 63 -436 95 -79 12 -461 11 -539 -1z m570 -508 c25 -6 70 -16
100 -22 234 -49 523 -187 717 -343 577 -463 812 -1206 607 -1919 -131 -455
-463 -856 -894 -1079 -164 -86 -315 -136 -535 -179 -109 -22 -506 -18 -610 5
-44 10 -98 22 -120 26 -22 5 -74 20 -115 34 -283 95 -507 233 -715 441 -248
248 -417 555 -483 880 -6 28 -16 79 -24 115 -18 87 -17 452 1 540 34 168 45
212 77 310 177 525 620 962 1144 1126 25 8 59 18 75 24 33 10 220 47 275 54
62 8 454 -3 500 -13z"/>
<path d="M6590 9645 l0 -35 113 0 c108 0 115 -1 137 -25 l23 -25 -27 -50 -27
-49 31 -105 c16 -57 30 -109 30 -115 0 -8 -128 -10 -462 -9 -426 3 -463 4
-466 20 -2 13 8 20 40 28 73 18 181 64 192 82 8 13 7 21 -1 29 -13 13 -533 43
-565 33 -29 -9 -21 -39 20 -76 39 -35 69 -50 139 -68 37 -9 43 -15 57 -56 l16
-46 -98 -120 c-53 -66 -102 -126 -108 -134 -10 -12 -21 -10 -76 16 -183 86
-417 79 -601 -17 -108 -56 -223 -174 -275 -284 -57 -119 -66 -158 -66 -294 0
-103 4 -132 27 -200 66 -199 218 -350 426 -423 67 -23 91 -26 201 -26 108 0
136 4 205 27 101 33 217 109 290 189 52 58 145 220 145 254 0 9 8 12 28 8 15
-2 59 -11 97 -18 55 -10 77 -19 100 -43 28 -28 30 -33 22 -74 -20 -104 -26
-119 -52 -119 -20 0 -25 -5 -25 -25 0 -24 2 -25 75 -25 68 0 75 2 75 20 0 14
-7 20 -21 20 -15 0 -19 5 -15 18 3 9 13 48 22 86 15 59 21 69 45 78 35 12 59
48 59 88 0 26 48 84 327 397 l327 366 13 -38 13 -38 -69 -72 c-118 -125 -181
-280 -181 -450 0 -110 18 -185 69 -290 75 -152 220 -277 385 -332 70 -23 98
-27 206 -27 110 0 134 3 201 26 208 73 360 224 426 423 23 68 27 97 27 200 0
136 -9 175 -66 294 -52 110 -167 228 -275 284 -173 90 -384 102 -561 33 l-61
-24 -42 117 c-23 64 -66 179 -95 256 l-52 140 30 53 30 52 -59 65 -58 64 -132
1 -133 0 0 -35z m328 -561 c2 -15 -80 -113 -304 -363 -168 -188 -308 -340
-311 -337 -10 10 9 66 23 66 8 0 14 10 14 25 0 24 -3 25 -60 25 -57 0 -60 -1
-60 -25 0 -14 5 -25 10 -25 6 0 10 -14 10 -32 0 -19 -4 -28 -9 -22 -5 5 -59
162 -121 349 -62 187 -115 346 -118 353 -3 10 90 12 459 10 460 -3 464 -3 467
-24z m-949 -299 c44 -137 101 -310 125 -384 l45 -133 -87 6 c-129 11 -122 5
-122 95 0 153 -63 316 -165 428 l-52 58 81 96 c45 53 84 93 87 90 4 -3 43
-118 88 -256z m-534 72 c28 -8 65 -22 83 -31 l33 -17 -20 -27 c-111 -155 -263
-345 -291 -364 -26 -18 -36 -32 -38 -57 -5 -48 20 -71 77 -71 72 -1 494 -84
499 -99 2 -7 -12 -45 -32 -86 -64 -129 -204 -239 -351 -274 -64 -16 -186 -16
-250 0 -185 45 -342 200 -391 384 -18 67 -17 197 1 270 22 82 60 149 129 222
109 117 259 178 416 168 47 -3 108 -11 135 -18z m2099 3 c107 -27 169 -63 251
-145 111 -111 155 -215 155 -370 0 -146 -48 -262 -150 -366 -106 -108 -233
-161 -385 -160 -154 1 -258 45 -373 157 -195 193 -212 475 -41 701 22 29 43
53 47 53 4 0 26 -37 49 -83 49 -95 114 -176 196 -244 31 -26 57 -54 57 -62 0
-45 75 -68 112 -34 18 16 24 68 10 89 -4 6 -25 21 -47 32 -69 35 -182 163
-225 256 -58 123 -58 119 -3 144 114 52 228 63 347 32z m-1849 -152 c73 -84
115 -204 115 -329 0 -50 -3 -59 -17 -59 -33 0 -408 63 -416 70 -8 7 260 360
274 360 4 0 24 -19 44 -42z"/>
</g>
</svg>
